<svg width="186" height="24" viewBox="0 0 186 24" fill="none" xmlns="http://www.w3.org/2000/svg">
<g id="mlx-marca">
<g id="Group 55">
<path id="Vector" d="M36.8721 2.10669H42.3454L47.2246 12.6659L52.101 2.10669H57.5743V19.6645H53.9851V10.9608L53.9705 5.76758L49.0701 15.9256H45.3818L40.4718 5.71743V10.9608V19.6645H36.8721V2.10669Z" fill="white"/>
<path id="Vector_2" d="M74.5357 16.806H62.9885V2.10669H59.3838V19.6645L72.1979 19.6561L74.5357 16.806Z" fill="white"/>
<path id="Vector_3" d="M84.5528 10.6587L91.9791 2.10669H87.595L82.1242 8.3271L76.4032 2.10669H72.1895L79.5498 10.7089L74.5358 16.8151V19.6648C75.8588 19.6648 77.1129 19.0603 77.9491 18.0213L81.9756 13.0182L87.3499 19.6648H91.9816L84.5528 10.6615V10.6587Z" fill="white"/>
<path id="Vector_4" d="M132.042 6.16936H135.632V8.52095C136.795 6.81295 138.676 5.87231 140.932 5.87231C145.043 5.87231 147.841 8.64472 147.841 12.9051C147.841 17.1655 144.994 19.9379 140.934 19.9379C138.682 19.9379 136.798 19.0467 135.634 17.3635V24.0002H132.042V6.16936ZM144.249 12.9271C144.249 10.0309 142.585 8.24591 140.01 8.24591C137.436 8.24591 135.632 10.0529 135.632 12.9271C135.632 15.8013 137.389 17.5093 139.991 17.5093C142.593 17.5093 144.251 15.8013 144.251 12.9271H144.249Z" fill="white"/>
<path id="Vector_5" d="M166.646 16.1597C166.646 13.0655 170.411 12.4467 173.728 11.7261C175.931 11.2558 177.218 10.835 177.218 9.84483C177.218 8.85468 176.178 8.23584 174.272 8.23584C172.19 8.23584 170.821 9.22874 170.364 10.7772H166.989C167.63 7.86454 170.438 5.8595 174.377 5.8595C178.315 5.8595 180.835 7.5675 180.835 10.8872V19.6775H177.246V17.92C175.958 19.2567 174.099 19.9746 171.946 19.9746C168.678 19.9746 166.648 18.4398 166.648 16.1597H166.646ZM172.812 17.6945C174.446 17.6945 176.228 17.0756 177.246 15.9865V12.7685C176.503 13.3131 175.315 13.5606 174.003 13.8577C171.924 14.328 170.163 14.6745 170.163 16.0607C170.163 17.1004 171.153 17.6945 172.812 17.6945Z" fill="white"/>
<path id="Vector_6" d="M116.051 16.1726C116.051 13.0784 119.816 12.4595 123.133 11.7389C125.336 11.2686 126.623 10.8478 126.623 9.85765C126.623 8.8675 125.584 8.24866 123.678 8.24866C121.596 8.24866 120.226 9.24156 119.769 10.79H116.395C117.035 7.87736 119.844 5.87231 123.782 5.87231C127.721 5.87231 130.241 7.58031 130.241 10.9V19.6903H126.651V17.9328C125.364 19.2695 123.504 19.9874 121.351 19.9874C118.083 19.9874 116.054 18.4526 116.054 16.1726H116.051ZM122.217 17.7073C123.851 17.7073 125.633 17.0884 126.651 15.9993V12.7813C125.908 13.3259 124.72 13.5734 123.408 13.8705C121.329 14.3408 119.569 14.6873 119.569 16.0736C119.569 17.1132 120.559 17.7073 122.217 17.7073Z" fill="white"/>
<path id="Vector_7" d="M182.187 2.10669H185.786V19.6648H182.187V2.10669Z" fill="white"/>
<path id="Vector_8" d="M97.4092 10.8846C97.4092 5.45327 101.595 1.83423 107.41 1.83423C111.519 1.83423 114.129 3.64375 115.6 5.92799L112.938 7.50294C111.802 5.77161 109.968 4.69651 107.41 4.69651C103.482 4.69651 101.002 7.24044 101.002 10.8874C101.002 14.5344 103.482 17.0532 107.41 17.0532C109.943 17.0532 111.802 16.0032 112.836 14.3501L115.6 15.8971C114.101 18.1283 111.491 19.9378 107.41 19.9378C101.595 19.9378 97.4092 16.2908 97.4092 10.8874V10.8846Z" fill="white"/>
<path id="Vector_9" d="M165.742 8.69446V6.16959H160.873V3.41919H157.271C157.271 4.93741 156.041 6.16684 154.523 6.16684H153.682V8.69171H157.274V16.17C157.274 18.4721 158.487 19.6851 161.086 19.6851H165.742V17.1107H162.673C161.386 17.1107 160.874 16.6404 160.874 15.6255V8.69171H165.745L165.742 8.69446Z" fill="white"/>
<path id="Union" fill-rule="evenodd" clip-rule="evenodd" d="M152.781 2.10669H149.191V4.85434H150.033C151.551 4.85434 152.781 3.62491 152.781 2.10669ZM149.191 6.16913H152.781V19.6901H149.191V6.16913Z" fill="white"/>
</g>
<g id="Group 56">
<path id="Vector_10" d="M13.1689 10.0081H0.000360489C0.000360489 4.47804 4.51097 -6.77109e-05 10.0811 -6.77109e-05H13.1689V10.0081Z" fill="white"/>
<path id="Vector_11" d="M28.0928 10.0081H14.9242C14.9242 4.47804 19.4348 -6.77109e-05 25.005 -6.77109e-05H28.0928V10.0081Z" fill="white"/>
<path id="Vector_12" d="M0 11.7649L13.1686 11.7649C13.1686 17.2949 8.65797 21.773 3.0878 21.773L-1.74988e-06 21.773L0 11.7649Z" fill="white"/>
<path id="Vector_13" d="M14.9248 21.7727H28.0934C28.0934 16.2427 23.5828 11.7646 18.0126 11.7646H14.9248V21.7727Z" fill="white"/>
</g>
</g>
</svg>
