<svg width="186" height="24" viewBox="0 0 186 24" fill="none" xmlns="http://www.w3.org/2000/svg">
<path d="M36.8721 2.10547H42.3454L47.2246 12.6646L52.101 2.10547H57.5743V19.6632H53.9851V10.9596L53.9705 5.76636L49.0701 15.9243H45.3818L40.4718 5.71621V10.9596V19.6632H36.8721V2.10547Z" fill="#ECECEA"/>
<path d="M74.5357 16.8047H62.9885V2.10547H59.3838V19.6632L72.1979 19.6549L74.5357 16.8047Z" fill="#ECECEA"/>
<path d="M84.5528 10.6575L91.9791 2.10547H87.595L82.1242 8.32588L76.4032 2.10547H72.1895L79.5498 10.7076L74.5358 16.8138V19.6636C75.8588 19.6636 77.1129 19.0591 77.9491 18.02L81.9756 13.017L87.3499 19.6636H91.9816L84.5528 10.6603V10.6575Z" fill="#ECECEA"/>
<path d="M132.042 6.17009H135.631V8.52168C136.795 6.81368 138.676 5.87305 140.931 5.87305C145.043 5.87305 147.84 8.64545 147.84 12.9058C147.84 17.1662 144.994 19.9386 140.934 19.9386C138.681 19.9386 136.797 19.0475 135.634 17.3642V24.0009H132.042V6.17009ZM144.248 12.9278C144.248 10.0317 142.584 8.24664 140.01 8.24664C137.436 8.24664 135.631 10.0537 135.631 12.9278C135.631 15.802 137.389 17.51 139.991 17.51C142.593 17.51 144.251 15.802 144.251 12.9278H144.248Z" fill="#ECECEA"/>
<path d="M166.646 16.1596C166.646 13.0654 170.411 12.4466 173.728 11.726C175.931 11.2557 177.218 10.8348 177.218 9.84471C177.218 8.85456 176.178 8.23572 174.272 8.23572C172.19 8.23572 170.821 9.22862 170.364 10.7771H166.989C167.63 7.86442 170.438 5.85938 174.377 5.85938C178.315 5.85938 180.835 7.56737 180.835 10.8871V19.6774H177.246V17.9199C175.958 19.2566 174.099 19.9744 171.946 19.9744C168.678 19.9744 166.648 18.4397 166.648 16.1596H166.646ZM172.812 17.6943C174.446 17.6943 176.228 17.0755 177.246 15.9864V12.7684C176.503 13.313 175.315 13.5605 174.003 13.8575C171.924 14.3279 170.163 14.6744 170.163 16.0606C170.163 17.1003 171.153 17.6943 172.812 17.6943Z" fill="#ECECEA"/>
<path d="M116.051 16.1713C116.051 13.0771 119.816 12.4583 123.133 11.7377C125.336 11.2674 126.623 10.8466 126.623 9.85642C126.623 8.86628 125.584 8.24744 123.678 8.24744C121.596 8.24744 120.226 9.24033 119.769 10.7888H116.395C117.035 7.87614 119.844 5.87109 123.782 5.87109C127.721 5.87109 130.241 7.57909 130.241 10.8988V19.6891H126.651V17.9316C125.364 19.2683 123.504 19.9861 121.351 19.9861C118.083 19.9861 116.054 18.4514 116.054 16.1713H116.051ZM122.217 17.7061C123.851 17.7061 125.633 17.0872 126.651 15.9981V12.7801C125.908 13.3247 124.72 13.5722 123.408 13.8693C121.329 14.3396 119.569 14.6861 119.569 16.0723C119.569 17.112 120.559 17.7061 122.217 17.7061Z" fill="#ECECEA"/>
<path d="M182.187 2.10547H185.786V19.6636H182.187V2.10547Z" fill="#ECECEA"/>
<path d="M97.4092 10.8844C97.4092 5.45302 101.595 1.83398 107.41 1.83398C111.519 1.83398 114.129 3.6435 115.6 5.92774L112.938 7.50269C111.802 5.77136 109.968 4.69626 107.41 4.69626C103.482 4.69626 101.002 7.2402 101.002 10.8872C101.002 14.5341 103.482 17.0529 107.41 17.0529C109.943 17.0529 111.802 16.003 112.836 14.3498L115.6 15.8969C114.101 18.128 111.491 19.9376 107.41 19.9376C101.595 19.9376 97.4092 16.2906 97.4092 10.8872V10.8844Z" fill="#ECECEA"/>
<path d="M165.742 8.69324V6.16837H160.873V3.41797H157.271C157.271 4.93619 156.041 6.16562 154.523 6.16562H153.682V8.69049H157.274V16.1688C157.274 18.4709 158.487 19.6838 161.086 19.6838H165.742V17.1095H162.673C161.386 17.1095 160.874 16.6391 160.874 15.6242V8.69049H165.745L165.742 8.69324Z" fill="#ECECEA"/>
<path fill-rule="evenodd" clip-rule="evenodd" d="M152.781 2.10547H149.191V4.85312H150.033C151.551 4.85312 152.781 3.62369 152.781 2.10547ZM149.191 6.16791H152.781V19.6889H149.191V6.16791Z" fill="#ECECEA"/>
<path d="M13.1689 10.0078H0.000360489C0.000360489 4.4778 4.51097 -0.000311852 10.0811 -0.000311852H13.1689V10.0078Z" fill="#ECECEA"/>
<path d="M28.0928 10.0078H14.9242C14.9242 4.4778 19.4348 -0.000311852 25.005 -0.000311852H28.0928V10.0078Z" fill="#ECECEA"/>
<path d="M0 11.7656L13.1686 11.7656C13.1686 17.2956 8.65797 21.7738 3.0878 21.7737L-1.74988e-06 21.7737L0 11.7656Z" fill="#ECECEA"/>
<path d="M14.9248 21.7734H28.0934C28.0934 16.2434 23.5828 11.7653 18.0126 11.7653H14.9248V21.7734Z" fill="#ECECEA"/>
</svg>
